<svg width="17" height="17" viewBox="0 0 17 17" fill="none" xmlns="http://www.w3.org/2000/svg">
<path d="M1 0.5L5 0.5C5.27614 0.5 5.5 0.723858 5.5 1V5C5.5 5.27614 5.27614 5.5 5 5.5H1C0.723858 5.5 0.5 5.27614 0.5 5L0.5 1C0.5 0.723858 0.723858 0.5 1 0.5Z" fill="#D9D9D9" stroke="black"/>
<path d="M11 11.5C11.2761 11.5 11.5 11.2761 11.5 11V6.5C11.5 6.22386 11.2761 6 11 6C10.7239 6 10.5 6.22386 10.5 6.5V10.5H6.5C6.22386 10.5 6 10.7239 6 11C6 11.2761 6.22386 11.5 6.5 11.5H11ZM5.64645 6.35355L10.6464 11.3536L11.3536 10.6464L6.35355 5.64645L5.64645 6.35355Z" fill="black"/>
<circle cx="14" cy="14" r="2.5" fill="#D9D9D9" stroke="black"/>
</svg>
